<svg width="20" height="20" viewBox="0 0 20 20" fill="none" xmlns="http://www.w3.org/2000/svg">
<path d="M10.5544 9.1563L10.3416 8.09251C10.1984 7.37656 9.80736 6.73402 9.23722 6.27791L8.95436 6.05162C8.69861 5.84702 8.41208 5.6842 8.10541 5.5692L7.11443 5.19758C6.44889 4.948 5.71784 4.93447 5.04352 5.15924L4.77933 5.24731C4.41225 5.36967 4.07129 5.5596 3.77403 5.80732L2.965 6.4815C2.56919 6.81135 2.26173 7.23456 2.07038 7.71294L1.49304 9.1563H10.5544Z" fill="#FFF8F1"/>
<path d="M10.6828 16.4673C11.126 15.1375 11.1809 13.709 10.8409 12.3491L10.1202 9.46613H2.05189L1.33113 12.3491C0.991181 13.709 1.04605 15.1375 1.4893 16.4673L1.74157 17.2241L1.43125 17.8447L2.05189 18.4654H10.1202L10.7408 17.8447L10.4305 17.2241L10.6828 16.4673Z" fill="#EB8316"/>
<path d="M8.57379 10.5086C8.20395 10.5277 7.83682 10.5825 7.47754 10.6723C6.56366 10.9008 5.60758 10.9008 4.6937 10.6723C3.97345 10.4923 3.22511 10.4537 2.49016 10.5586L1.98495 10.6308C1.83294 10.6525 1.67829 10.6171 1.55087 10.5315C1.42345 10.4458 1.33231 10.3159 1.29507 10.1669L1.16434 9.64404C1.13572 9.52953 1.14034 9.40923 1.17766 9.29725L1.27217 9.01373C1.31708 8.879 1.40683 8.76375 1.52646 8.68721C1.64609 8.61067 1.78835 8.57747 1.92949 8.59315L4.06658 8.83061C4.17131 8.84224 4.27566 8.85673 4.37964 8.87405L5.13194 8.99944C5.76337 9.10468 6.40787 9.10468 7.0393 8.99944L7.79159 8.87405C7.89554 8.85673 7.99989 8.84225 8.10466 8.83061L8.56817 8.77911" fill="#1C1C1C"/>
<path d="M4.84497 6.2077H5.46561V6.51802H4.84497V6.2077Z" fill="#FCB298"/>
<path d="M3.60364 6.82776H4.22428V7.13808H3.60364V6.82776Z" fill="#FCB298"/>
<path d="M4.22369 7.75909H4.84433V8.06941H4.22369V7.75909Z" fill="#FCB298"/>
<path d="M5.77637 8.06793H6.39701V8.37825H5.77637V8.06793Z" fill="#FCB298"/>
<path d="M5.46509 7.1366H6.08573V7.44692H5.46509V7.1366Z" fill="#FCB298"/>
<path d="M6.39642 5.89642H7.01706V6.20674H6.39642V5.89642Z" fill="#FCB298"/>
<path d="M7.32776 6.82776H7.9484V7.13808H7.32776V6.82776Z" fill="#FCB298"/>
<path d="M7.01654 7.75909H7.63718V8.06941H7.01654V7.75909Z" fill="#FCB298"/>
<path d="M4.84497 6.2077H5.46561V6.51802H4.84497V6.2077Z" fill="#EB8316"/>
<path d="M3.60364 6.82776H4.22428V7.13808H3.60364V6.82776Z" fill="#EB8316"/>
<path d="M4.22369 7.75909H4.84433V8.06941H4.22369V7.75909Z" fill="#EB8316"/>
<path d="M5.77637 8.06793H6.39701V8.37825H5.77637V8.06793Z" fill="#EB8316"/>
<path d="M5.46509 7.1366H6.08573V7.44692H5.46509V7.1366Z" fill="#EB8316"/>
<path d="M6.39642 5.89642H7.01706V6.20674H6.39642V5.89642Z" fill="#EB8316"/>
<path d="M7.32776 6.82776H7.9484V7.13808H7.32776V6.82776Z" fill="#EB8316"/>
<path d="M8.56915 7.44788H9.18979V7.7582H8.56915V7.44788Z" fill="#FCB298"/>
<path d="M7.01654 7.75909H7.63718V8.06941H7.01654V7.75909Z" fill="#EB8316"/>
<path d="M14.7743 19.11V5.45593L13.2227 3.59402V2.04242H10.1195V3.59402L8.56793 5.45593V19.11H14.7743Z" fill="#FDC75B"/>
<path d="M11.6721 5.45579H14.7753L13.2237 3.59387H10.1205L11.6721 5.45579Z" fill="#1C1C1C"/>
<path d="M11.672 5.45654H14.7752V19.1106H11.672V5.45654Z" fill="#EB8316"/>
<path d="M19.0164 17.6628L18.8087 17.2475V6.34711C18.8087 6.16515 18.7687 5.9854 18.6916 5.82062C18.6144 5.65583 18.5019 5.51003 18.3621 5.39354L17.3935 4.58633C17.2537 4.46983 17.1412 4.32403 17.064 4.15925C16.9868 3.99446 16.9468 3.81472 16.9468 3.63275V2.66254H15.0849V3.63275C15.0849 3.81472 15.0449 3.99446 14.9677 4.15925C14.8905 4.32403 14.7781 4.46984 14.6383 4.58633L13.6696 5.39354C13.5298 5.51003 13.4174 5.65583 13.3402 5.82062C13.263 5.9854 13.223 6.16515 13.223 6.34711V17.2475L13.0154 17.6628C12.9491 17.7953 12.9324 17.9472 12.9684 18.0909L13.1055 18.6393C13.139 18.7736 13.2165 18.8928 13.3256 18.978C13.4347 19.0632 13.5692 19.1095 13.7076 19.1095H18.3242C18.4626 19.1095 18.597 19.0632 18.7061 18.978C18.8152 18.8928 18.8927 18.7736 18.9263 18.6393L19.0634 18.0909C19.0993 17.9472 19.0826 17.7953 19.0164 17.6628Z" fill="#FFDFBF"/>
<path d="M13.2234 6.34766V11.0417H18.8091V6.34766C18.8091 6.25648 18.7991 6.16558 18.7792 6.0766H13.2533C13.2334 6.16558 13.2234 6.25648 13.2234 6.34766Z" fill="#FDC75B"/>
<path d="M16.6368 1.11108H15.3955C15.0527 1.11108 14.7748 1.38895 14.7748 1.73172V2.35236C14.7748 2.69513 15.0527 2.973 15.3955 2.973H16.6368C16.9795 2.973 17.2574 2.69513 17.2574 2.35236V1.73172C17.2574 1.38895 16.9795 1.11108 16.6368 1.11108Z" fill="#1C1C1C"/>
<path d="M13.2234 15.8521H18.8091V16.1624H13.2234V15.8521Z" fill="#EB8316"/>
<path d="M13.2234 14.6095H18.8091V14.9198H13.2234V14.6095Z" fill="#EB8316"/>
<path d="M13.2234 13.3693H18.8091V13.6796H13.2234V13.3693Z" fill="#EB8316"/>
<path d="M13.2234 12.1267H18.8091V12.437H13.2234V12.1267Z" fill="#EB8316"/>
<path d="M15.3932 6.6099L15.2248 6.53619L15.1511 6.70459C15.0701 6.8897 15.0493 7.0956 15.0919 7.29314C15.1344 7.49068 15.238 7.66983 15.3879 7.80523L15.9659 7.57916C15.9843 7.37793 15.9388 7.17603 15.836 7.00208C15.7332 6.82812 15.5783 6.69091 15.3932 6.6099Z" fill="#EB8316"/>
<path d="M16.6444 9.31323L16.0664 9.53931C16.0481 9.74053 16.0935 9.94243 16.1963 10.1164C16.2991 10.2903 16.454 10.4275 16.6392 10.5086L16.8076 10.5823L16.8813 10.4139C16.9623 10.2288 16.983 10.0229 16.9405 9.82532C16.898 9.62778 16.7944 9.44863 16.6444 9.31323Z" fill="#EB8316"/>
<path d="M17.8707 7.69424C17.6856 7.61322 17.4797 7.5925 17.2822 7.63501C17.0846 7.67752 16.9055 7.78111 16.7701 7.93109L16.9962 8.50909C17.1974 8.52742 17.3993 8.48196 17.5732 8.37917C17.7472 8.27637 17.8844 8.12145 17.9654 7.93634L18.0391 7.76794L17.8707 7.69424Z" fill="#EB8316"/>
<path d="M15.036 8.60956C14.8348 8.59123 14.6329 8.63669 14.4589 8.73949C14.285 8.84228 14.1478 8.9972 14.0667 9.18231L13.993 9.35071L14.1614 9.42441C14.3465 9.50543 14.5525 9.52615 14.75 9.48364C14.9475 9.44113 15.1267 9.33754 15.2621 9.18756L15.036 8.60956Z" fill="#EB8316"/>
<path d="M16.9814 6.76918L16.8951 6.5484L16.6743 6.63475C16.4801 6.7107 16.3109 6.83923 16.1857 7.00592C16.0604 7.17262 15.9841 7.3709 15.9651 7.57855L16.7692 7.93047C16.9089 7.7757 17.0028 7.58508 17.0403 7.37997C17.0778 7.17485 17.0574 6.96336 16.9814 6.76918Z" fill="#EB8316"/>
<path d="M15.3885 7.80551C15.2337 7.6658 15.0431 7.57194 14.838 7.53446C14.6329 7.49698 14.4214 7.51736 14.2272 7.59331L14.0064 7.67966L14.0928 7.90044C14.1687 8.09462 14.2972 8.26382 14.4639 8.38907C14.6306 8.51432 14.8289 8.59068 15.0366 8.60959L15.3885 7.80551Z" fill="#EB8316"/>
<path d="M16.0664 9.53869L15.2624 9.18677C15.1226 9.34154 15.0288 9.53216 14.9913 9.73727C14.9538 9.94239 14.9742 10.1539 15.0502 10.3481L15.1365 10.5688L15.3573 10.4825C15.5515 10.4065 15.7207 10.278 15.8459 10.1113C15.9712 9.94462 16.0475 9.74634 16.0664 9.53869Z" fill="#EB8316"/>
<path d="M17.9406 9.21751C17.8646 9.02333 17.7361 8.85413 17.5694 8.72888C17.4027 8.60363 17.2044 8.52727 16.9968 8.50836L16.6448 9.31244C16.7996 9.45215 16.9902 9.54601 17.1953 9.58349C17.4005 9.62097 17.612 9.60059 17.8061 9.52464L18.0269 9.43828L17.9406 9.21751Z" fill="#EB8316"/>
<path d="M18.8865 17.4026L18.809 17.2474V17.0923H13.2232V17.2474L13.1456 17.4026H18.8865Z" fill="#EB8316"/>
<path d="M17.0012 8.756C17.1055 8.21415 16.7508 7.69037 16.209 7.58608C15.6671 7.4818 15.1433 7.83651 15.039 8.37835C14.9348 8.92019 15.2895 9.44398 15.8313 9.54826C16.3732 9.65255 16.8969 9.29784 17.0012 8.756Z" fill="#FDC75B"/>
</svg>
