<svg width="16" height="17" viewBox="0 0 16 17" fill="none" xmlns="http://www.w3.org/2000/svg">
<path d="M11.71 8.59279C11.7083 8.34927 11.611 8.11617 11.4391 7.94364L6.93857 3.44422C6.76273 3.26808 6.52459 3.1683 6.27571 3.1665C6.15256 3.16601 6.03054 3.19 5.91674 3.23709C5.80295 3.28418 5.69965 3.35342 5.61285 3.44079C5.43672 3.61662 5.33694 3.85477 5.33514 4.10364C5.33381 4.22692 5.35742 4.34918 5.40456 4.4631C5.45169 4.57701 5.52138 4.68021 5.60943 4.7665L9.44714 8.60307L5.60943 12.4419C5.44218 12.6203 5.35104 12.8568 5.35539 13.1012C5.35973 13.3457 5.4592 13.5788 5.63268 13.7511C5.80616 13.9234 6.03997 14.0213 6.28445 14.0239C6.52893 14.0266 6.76481 13.9338 6.942 13.7654L11.4391 9.26593C11.5266 9.17725 11.5956 9.07208 11.6421 8.95653C11.6886 8.84097 11.7117 8.71733 11.71 8.59279Z" fill="#3D3D3D"/>
</svg>
