<svg width="16" height="16" viewBox="0 0 16 16" fill="none" xmlns="http://www.w3.org/2000/svg">
<path d="M8.09279 4.29002C7.84927 4.29175 7.61617 4.38901 7.44364 4.56087L2.94422 9.06145C2.76808 9.23728 2.6683 9.47543 2.6665 9.7243C2.66601 9.84746 2.69 9.96948 2.73709 10.0833C2.78418 10.1971 2.85342 10.3004 2.94079 10.3872C3.11662 10.5633 3.35477 10.6631 3.60364 10.6649C3.72692 10.6662 3.84918 10.6426 3.9631 10.5955C4.07701 10.5483 4.18021 10.4786 4.2665 10.3906L8.10307 6.55287L11.9419 10.3906C12.1203 10.5578 12.3568 10.649 12.6012 10.6446C12.8457 10.6403 13.0788 10.5408 13.2511 10.3673C13.4234 10.1939 13.5213 9.96004 13.5239 9.71557C13.5266 9.47109 13.4338 9.2352 13.2654 9.05802L8.76593 4.56087C8.67725 4.4734 8.57208 4.40442 8.45653 4.35792C8.34097 4.31143 8.21733 4.28834 8.09279 4.29002Z" fill="#3D3D3D"/>
</svg>
